<?xml version="1.0" encoding="UTF-8"?>
<svg id="Layer_1" xmlns="http://www.w3.org/2000/svg" version="1.1" viewBox="0 0 1360 800">
  <!-- Generator: Adobe Illustrator 30.2.1, SVG Export Plug-In . SVG Version: 2.1.1 Build 1)  -->
  <defs>
    <style>
      .st0, .st1, .st2, .st3, .st4, .st5, .st6 {
        fill: none;
      }

      .st0, .st2, .st4 {
        stroke-linejoin: round;
      }

      .st0, .st2, .st4, .st6 {
        stroke-linecap: round;
      }

      .st0, .st7, .st6 {
        stroke: #e24b4a;
      }

      .st0, .st6 {
        stroke-width: 4px;
      }

      .st1, .st2, .st8, .st9, .st10, .st11, .st12, .st5, .st13, .st14 {
        isolation: isolate;
      }

      .st1, .st9 {
        opacity: .5;
      }

      .st1, .st7, .st5, .st15, .st6, .st16, .st17 {
        stroke-miterlimit: 8;
      }

      .st1, .st7, .st5, .st16 {
        stroke-width: 2.4px;
      }

      .st1, .st5 {
        stroke: #afa9ec;
      }

      .st2 {
        opacity: .35;
        stroke-width: 2px;
      }

      .st2, .st4, .st16 {
        stroke: #1d9e75;
      }

      .st18 {
        fill: #eeedfe;
      }

      .st8 {
        fill: #534ab7;
        font-family: CourierNewPSMT, 'Courier New';
        font-size: 26px;
        letter-spacing: .08em;
      }

      .st9, .st10, .st13, .st14 {
        fill: #1d9e75;
      }

      .st10, .st5 {
        opacity: .6;
      }

      .st7 {
        fill: #fcebeb;
      }

      .st19 {
        fill: #0f6e56;
      }

      .st12 {
        fill: #26215c;
        font-family: CourierNewPS-BoldMT, 'Courier New';
        font-size: 56px;
        font-weight: 700;
        letter-spacing: -.02em;
      }

      .st4 {
        stroke-width: 4.4px;
      }

      .st13 {
        opacity: .7;
      }

      .st20 {
        fill: #7f77dd;
      }

      .st15, .st17 {
        fill: #cecbf6;
        stroke: #534ab7;
        stroke-width: 3px;
      }

      .st16 {
        fill: #e1f5ee;
      }

      .st17 {
        fill-opacity: .6;
      }

      .st14 {
        opacity: .4;
      }
    </style>
  </defs>
  <g>
    <rect class="st18" x="284" y="193.16" width="216" height="296" rx="6" ry="6"/>
    <rect class="st20" x="272" y="181.16" width="32" height="320" rx="8" ry="8"/>
    <rect class="st17" x="272" y="181.16" width="240" height="320" rx="12" ry="12"/>
    <line class="st1" x1="316" y1="241.16" x2="480" y2="241.16"/>
    <line class="st1" x1="316" y1="269.16" x2="480" y2="269.16"/>
    <line class="st1" x1="316" y1="297.16" x2="480" y2="297.16"/>
    <line class="st1" x1="316" y1="325.16" x2="480" y2="325.16"/>
    <line class="st1" x1="316" y1="353.16" x2="440" y2="353.16"/>
    <line class="st1" x1="316" y1="381.16" x2="480" y2="381.16"/>
    <line class="st1" x1="316" y1="409.16" x2="410" y2="409.16"/>
    <line class="st1" x1="316" y1="437.16" x2="480" y2="437.16"/>
    <path class="st0" d="M376,181.16l-8,44,16,28-12,36,16,40-12,44,8,128"/>
    <circle class="st7" cx="500" cy="181.16" r="28"/>
    <line class="st6" x1="486" y1="167.16" x2="514" y2="195.16"/>
    <line class="st6" x1="514" y1="167.16" x2="486" y2="195.16"/>
    <path class="st3" d="M698,329.16l18,12-18,12"/>
    <g>
      <rect class="st16" x="604" y="263.16" width="52" height="52" rx="12" ry="12"/>
      <path class="st19" d="M620,303.16l16-20c5.33-6.67,6.67-11.33,4-14s-6-3.33-10-2l4,6-6,6-8,24Z"/>
      <rect class="st19" x="633.9" y="272.92" width="20" height="8" rx="2" ry="2" transform="translate(-7.22 536.41) rotate(-45)"/>
    </g>
    <rect class="st18" x="844" y="193.16" width="216" height="296" rx="6" ry="6"/>
    <rect class="st20" x="832" y="181.16" width="32" height="320" rx="8" ry="8"/>
    <rect class="st15" x="832" y="181.16" width="240" height="320" rx="12" ry="12"/>
    <line class="st5" x1="876" y1="241.16" x2="1040" y2="241.16"/>
    <line class="st5" x1="876" y1="269.16" x2="1040" y2="269.16"/>
    <line class="st5" x1="876" y1="297.16" x2="1040" y2="297.16"/>
    <line class="st5" x1="876" y1="325.16" x2="1040" y2="325.16"/>
    <line class="st5" x1="876" y1="353.16" x2="1000" y2="353.16"/>
    <line class="st5" x1="876" y1="381.16" x2="1040" y2="381.16"/>
    <line class="st5" x1="876" y1="409.16" x2="970" y2="409.16"/>
    <line class="st5" x1="876" y1="437.16" x2="1040" y2="437.16"/>
    <path class="st2" d="M936,181.16l-8,44,16,28-12,36,16,40-12,44,8,128"/>
    <circle class="st16" cx="1060" cy="181.16" r="28"/>
    <path class="st4" d="M1046,181.16l10,12,20-26"/>
    <circle class="st13" cx="606" cy="293.16" r="5"/>
    <circle class="st9" cx="630" cy="389.16" r="4"/>
    <circle class="st10" cx="700" cy="269.16" r="3.6"/>
    <circle class="st14" cx="734" cy="405.16" r="4.4"/>
    <circle class="st13" cx="760" cy="305.16" r="3"/>
  </g>
  <g>
    <g class="st11">
      <text class="st12" transform="translate(436.84 573.16)"><tspan x="0" y="0">epub-kindle-fix</tspan></text>
    </g>
    <g class="st11">
      <text class="st8" transform="translate(390.94 629.16)"><tspan x="0" y="0">CLI tool · 8 automated EPUB fixes</tspan></text>
    </g>
  </g>
</svg>