<?xml version="1.0" encoding="UTF-8"?>
<svg xmlns="http://www.w3.org/2000/svg" xmlns:xlink="http://www.w3.org/1999/xlink" viewBox="0 0 289.45 291.92">
  <defs>
    <style>
      .cls-1 {
        fill: url(#linear-gradient-2);
      }

      .cls-2 {
        fill: url(#radial-gradient-4);
      }

      .cls-2, .cls-3, .cls-4, .cls-5, .cls-6 {
        mix-blend-mode: screen;
      }

      .cls-2, .cls-7 {
        opacity: .5;
      }

      .cls-8, .cls-9, .cls-7 {
        fill: #fff;
      }

      .cls-3 {
        fill: url(#radial-gradient-5);
      }

      .cls-4 {
        fill: url(#radial-gradient);
      }

      .cls-10 {
        isolation: isolate;
      }

      .cls-11 {
        fill: #aeaeae;
      }

      .cls-12 {
        fill: #5b2b3b;
        mix-blend-mode: darken;
        opacity: .3;
      }

      .cls-13 {
        fill: #f59220;
      }

      .cls-5 {
        fill: url(#radial-gradient-3);
      }

      .cls-9 {
        opacity: .4;
      }

      .cls-6 {
        fill: url(#radial-gradient-2);
      }

      .cls-14 {
        fill: url(#linear-gradient);
      }

      .cls-7 {
        mix-blend-mode: overlay;
      }
    </style>
    <linearGradient id="linear-gradient" x1="66.19" y1="126.06" x2="288.42" y2="126.06" gradientUnits="userSpaceOnUse">
      <stop offset="0" stop-color="#ed1c78"/>
      <stop offset=".15" stop-color="#e81e79"/>
      <stop offset=".33" stop-color="#d9247e"/>
      <stop offset=".52" stop-color="#c12e86"/>
      <stop offset=".72" stop-color="#a13c92"/>
      <stop offset=".9" stop-color="#7e4c9e"/>
    </linearGradient>
    <linearGradient id="linear-gradient-2" x1="318.98" y1="197.54" x2="31.77" y2="314.34" gradientUnits="userSpaceOnUse">
      <stop offset=".05" stop-color="#f2a51e"/>
      <stop offset="1" stop-color="#d0489a"/>
    </linearGradient>
    <radialGradient id="radial-gradient" cx="95.61" cy="92.46" fx="95.61" fy="92.46" r="216.6" gradientTransform="translate(-66.74 344.75) rotate(-88.59) scale(1 1.44)" gradientUnits="userSpaceOnUse">
      <stop offset=".1" stop-color="#7e4c9e"/>
      <stop offset=".17" stop-color="#7754a3"/>
      <stop offset=".28" stop-color="#676ab2"/>
      <stop offset=".38" stop-color="#5386c6"/>
      <stop offset=".55" stop-color="#6dccde"/>
      <stop offset=".6" stop-color="#87d1c9"/>
      <stop offset=".69" stop-color="#b1d9a9"/>
      <stop offset=".78" stop-color="#d2df8f"/>
      <stop offset=".86" stop-color="#eae47d"/>
      <stop offset=".94" stop-color="#f9e772"/>
      <stop offset="1" stop-color="#fee86f"/>
    </radialGradient>
    <radialGradient id="radial-gradient-2" cx="92.78" cy="119.02" fx="92.78" fy="119.02" r="142.34" gradientTransform="translate(-128.87 355.75) rotate(-90.2) scale(1.17 1.66) skewX(-4.58)" xlink:href="#radial-gradient"/>
    <radialGradient id="radial-gradient-3" cx="96.37" cy="113.58" fx="96.37" fy="113.58" r="79.31" gradientTransform="translate(-119.15 368.1) rotate(-90.2) scale(1.17 1.66) skewX(-4.58)" xlink:href="#radial-gradient"/>
    <radialGradient id="radial-gradient-4" cx="326.76" cy="409.57" fx="326.76" fy="409.57" r="433.93" gradientUnits="userSpaceOnUse">
      <stop offset=".06" stop-color="#1c1e54"/>
      <stop offset=".89" stop-color="#057ab2"/>
    </radialGradient>
    <radialGradient id="radial-gradient-5" cx="225.2" cy="31.53" fx="225.2" fy="31.53" r="36.61" gradientUnits="userSpaceOnUse">
      <stop offset=".06" stop-color="#f37f9a"/>
      <stop offset=".53" stop-color="#ee4498"/>
      <stop offset=".99" stop-color="#d11c5c"/>
    </radialGradient>
  </defs>
  <g class="cls-10">
    <g id="Layer_1" data-name="Layer 1">
      <g>
        <path class="cls-14" d="M288.42,226.89l-222.22,11.67V30.36c0-9.24,7.56-16.81,16.81-16.81h188.61c9.24,0,16.81,7.56,16.81,16.81v196.53Z"/>
        <path class="cls-12" d="M176.7,237.13h-110.55V31.45c0-9.09,7.51-16.46,16.77-16.46h93.78v222.15Z"/>
        <path class="cls-8" d="M288.44,276.67H83.03c-9.24,0-16.81-7.56-16.81-16.81v-14.84c0-9.24,7.56-16.81,16.81-16.81h205.41s-8.4,10.97-8.4,25.21c0,13.42,8.4,23.25,8.4,23.25Z"/>
        <path class="cls-11" d="M269.93,241.53H84.04c-1.22,0-2.2-.98-2.2-2.2s.98-2.2,2.2-2.2h185.9c1.22,0,2.2.98,2.2,2.2s-.98,2.2-2.2,2.2Z"/>
        <path class="cls-11" d="M265.58,250.44H80.16c-1.22,0-2.2-.98-2.2-2.2s.98-2.2,2.2-2.2h185.42c1.22,0,2.2.98,2.2,2.2s-.98,2.2-2.2,2.2Z"/>
        <path class="cls-11" d="M265.67,259.34H79.98c-1.22,0-2.2-.98-2.2-2.2s.98-2.2,2.2-2.2h185.69c1.22,0,2.2.98,2.2,2.2s-.98,2.2-2.2,2.2Z"/>
        <path class="cls-11" d="M268.2,268.25H84.04c-1.22,0-2.2-.98-2.2-2.2s.98-2.2,2.2-2.2h184.17c1.22,0,2.2.98,2.2,2.2s-.98,2.2-2.2,2.2Z"/>
        <path class="cls-1" d="M286.69,279.04s-.03,0-.05,0H84.51c-10.64,0-19.29-8.66-19.29-19.29v-14.6c0-10.64,8.65-19.29,19.29-19.29h202.13c1.05,0,2,.6,2.47,1.53.46.94.36,2.06-.28,2.89-.08.1-7.7,10.28-7.7,23.13,0,10.8,6.13,19.2,7.39,20.81.57.51.93,1.24.93,2.07,0,1.52-1.23,2.76-2.76,2.76ZM84.51,231.36c-7.6,0-13.78,6.18-13.78,13.78v14.6c0,7.6,6.18,13.78,13.78,13.78h196.89c-2.58-4.35-5.79-11.5-5.79-20.12,0-9.41,3.43-17.38,6.02-22.05H84.51Z"/>
        <polygon class="cls-13" points="250.13 291.92 230.53 272.32 210.92 291.92 210.92 252.96 250.13 252.96 250.13 291.92"/>
        <polygon class="cls-7" points="230.53 272.32 210.92 291.92 210.92 252.96 230.53 252.96 230.53 272.32"/>
        <path class="cls-4" d="M110.27,265.36s92.88-71.91-41.95-225.16c0,0-133.37,166.78-27.44,227.53,15.06,8.63,49.74,15.2,69.39-2.37Z"/>
        <path class="cls-6" d="M102.29,266.83s68.9-53.43-36.62-174.39c0,0-99.72,128.21-18.09,177.28,11.6,6.98,40.19,10.23,54.71-2.89Z"/>
        <path class="cls-5" d="M87.9,270.32s38.39-29.77-20.4-97.17c0,0-55.56,71.43-10.08,98.78,6.46,3.89,22.39,5.7,30.48-1.61Z"/>
        <path class="cls-8" d="M193.45,46.57s2.22,5.14,3.52,6.43,6.43,3.52,6.43,3.52c0,0-5.13,2.22-6.43,3.52-1.3,1.3-3.52,6.43-3.52,6.43,0,0-2.22-5.14-3.52-6.43s-6.43-3.52-6.43-3.52c0,0,5.14-2.22,6.43-3.52,1.3-1.3,3.52-6.43,3.52-6.43Z"/>
        <path class="cls-8" d="M111.08,40.7s1.69,3.91,2.68,4.9,4.9,2.68,4.9,2.68c0,0-3.91,1.69-4.9,2.68-.99.99-2.68,4.9-2.68,4.9,0,0-1.69-3.91-2.68-4.9-.99-.99-4.9-2.68-4.9-2.68,0,0,3.91-1.69,4.9-2.68.99-.99,2.68-4.9,2.68-4.9Z"/>
        <path class="cls-8" d="M260.84,88.36s1.69,3.91,2.68,4.9c.99.99,4.9,2.68,4.9,2.68,0,0-3.91,1.69-4.9,2.68-.99.99-2.68,4.9-2.68,4.9,0,0-1.69-3.91-2.68-4.9s-4.9-2.68-4.9-2.68c0,0,3.91-1.69,4.9-2.68s2.68-4.9,2.68-4.9Z"/>
        <path class="cls-9" d="M209.93,153.13s7.45,5.61,10.4,6.42c2.95.81,12.22-.21,12.22-.21,0,0-5.61,7.45-6.41,10.4-.81,2.95.21,12.22.21,12.22,0,0-7.45-5.61-10.4-6.42s-12.22.21-12.22.21c0,0,5.61-7.45,6.42-10.4.81-2.95-.21-12.22-.21-12.22Z"/>
        <path class="cls-8" d="M127.66,116.35s3.7,8.56,5.86,10.72c2.16,2.16,10.72,5.86,10.72,5.86,0,0-8.56,3.7-10.72,5.86-2.16,2.16-5.86,10.72-5.86,10.72,0,0-3.7-8.56-5.86-10.72-2.16-2.16-10.72-5.86-10.72-5.86,0,0,8.56-3.7,10.72-5.86,2.16-2.16,5.86-10.72,5.86-10.72Z"/>
        <path class="cls-2" d="M184.61,114.02s1.23-2.85,1.95-3.57c.72-.72,3.57-1.95,3.57-1.95,0,0-2.85-1.23-3.57-1.95s-1.95-3.57-1.95-3.57c0,0-1.23,2.85-1.95,3.57-.72.72-3.57,1.95-3.57,1.95,0,0,2.85,1.23,3.57,1.95.72.72,1.95,3.57,1.95,3.57Z"/>
        <path class="cls-3" d="M229.13,27.44c-.87.53-2.01.26-2.54-.61-.53-.87-.26-2.01.61-2.54.87-.53,2.01-.26,2.54.61.53.87.26,2.01-.61,2.54ZM265.71,22.32c-1.07-1.74-3.34-2.28-5.08-1.22-1.74,1.07-2.28,3.34-1.22,5.08,1.07,1.74,3.34,2.28,5.08,1.21s2.28-3.34,1.21-5.08ZM231.81,51.8c-2.13-3.48-6.68-4.56-10.16-2.43-3.48,2.13-4.56,6.68-2.43,10.16,2.13,3.48,6.68,4.56,10.16,2.43,3.48-2.13,4.56-6.68,2.43-10.16ZM190.98,1.76c-1.07-1.74-3.34-2.28-5.08-1.22-1.74,1.07-2.28,3.34-1.21,5.08,1.07,1.74,3.34,2.28,5.08,1.21s2.28-3.34,1.21-5.08Z"/>
      </g>
    </g>
  </g>
</svg>